<?xml version="1.0" standalone="no"?>
<!DOCTYPE svg PUBLIC "-//W3C//DTD SVG 1.1//EN" "http://www.w3.org/Graphics/SVG/1.1/DTD/svg11.dtd" >
<svg xmlns="http://www.w3.org/2000/svg" xmlns:xlink="http://www.w3.org/1999/xlink" version="1.1" viewBox="-10 0 1210 2048">
   <path fill="currentColor"
d="M630 977h-137l-235 564l-40 -1l-20 -358l204 -205l-136 1l-123 122l-67 68l49 402l44 66l355 1l333 -661l-132 1l-254 565l-77 -1zM168 238l-44 66l-49 74l68 404l127 127l264 -1l97 -1l-184 -520h-136l136 426h-138l-112 -448l20 -31h269l240 573h131l-332 -668z
M1113 941l-368 696h-129l361 -696l-9 -9l-349 -693h128z" />
</svg>
