<?xml version="1.0" standalone="no"?>
<!DOCTYPE svg PUBLIC "-//W3C//DTD SVG 1.1//EN" "http://www.w3.org/Graphics/SVG/1.1/DTD/svg11.dtd" >
<svg xmlns="http://www.w3.org/2000/svg" xmlns:xlink="http://www.w3.org/1999/xlink" version="1.1" viewBox="-10 0 1434 2048">
   <path fill="currentColor"
d="M246.182 1001.03c58.5576 0 106.1 47.543 106.1 106.1c0 58.5605 -47.542 106.104 -106.1 106.105c-58.5615 0 -106.104 -47.5449 -106.104 -106.105c0 -58.5576 47.5449 -106.1 106.104 -106.1zM359.027 1107.13c0 -62.2793 -50.5645 -112.846 -112.846 -112.847
c-62.2842 0 -112.851 50.5654 -112.852 112.847c0 62.2842 50.5674 112.852 112.852 112.852c62.2812 -0.000976562 112.846 -50.5674 112.846 -112.852zM246.182 887.498c121.219 0 219.633 98.416 219.633 219.634c0 121.222 -98.4141 219.638 -219.633 219.64
c-121.222 0 -219.639 -98.418 -219.639 -219.64c0.000976562 -121.219 98.417 -219.634 219.639 -219.634zM472.561 1107.13c0 -124.941 -101.438 -226.379 -226.379 -226.381c-124.945 0 -226.384 101.438 -226.386 226.381c0 124.945 101.44 226.386 226.386 226.386
c124.941 -0.00195312 226.379 -101.44 226.379 -226.386zM246.181 884.125c-123.082 0 -223.01 99.9268 -223.011 223.008c0 123.082 99.9287 223.011 223.011 223.011c123.082 -0.000976562 223.008 -99.9287 223.008 -223.011
c-0.000976562 -123.081 -99.9268 -223.007 -223.008 -223.008zM246.181 997.658c60.4199 0.000976562 109.474 49.0547 109.475 109.475c0 60.4209 -49.0547 109.477 -109.475 109.478c-60.4219 0 -109.477 -49.0557 -109.477 -109.478
c0 -60.4199 49.0557 -109.475 109.477 -109.475zM701.152 735.425c58.5586 0 106.101 47.543 106.101 106.102s-47.541 106.103 -106.101 106.104c-58.5576 0 -106.104 -47.5449 -106.104 -106.104c0.000976562 -58.5596 47.5459 -106.102 106.104 -106.102zM814 841.526
c0 -62.2812 -50.5654 -112.847 -112.848 -112.848c-62.2812 0 -112.849 50.5645 -112.851 112.848c0 62.2822 50.5693 112.851 112.851 112.851c62.2842 -0.00195312 112.848 -50.5684 112.848 -112.851zM701.152 621.892c121.22 0 219.635 98.415 219.635 219.635
s-98.415 219.638 -219.635 219.638c-121.219 0 -219.636 -98.418 -219.636 -219.638s98.417 -219.635 219.636 -219.635zM474.77 841.526c0 124.943 101.439 226.384 226.383 226.384s226.382 -101.44 226.382 -226.384s-101.438 -226.38 -226.382 -226.381
c-124.941 0 -226.383 101.438 -226.383 226.381zM701.153 618.519c-123.081 0 -223.01 99.9258 -223.01 223.008s99.9277 223.011 223.01 223.011c123.081 -0.000976562 223.008 -99.9297 223.008 -223.011c0 -123.082 -99.9268 -223.007 -223.008 -223.008z
M701.153 732.052c60.4199 0.000976562 109.473 49.0547 109.474 109.475c0 60.4209 -49.0527 109.477 -109.474 109.477s-109.478 -49.0557 -109.478 -109.477c0.000976562 -60.4209 49.0566 -109.475 109.478 -109.475zM1156.04 476.314
c58.5576 0 106.099 47.543 106.101 106.102c0 58.5586 -47.543 106.103 -106.101 106.104c-58.5605 0 -106.104 -47.5439 -106.104 -106.104c0.00195312 -58.5586 47.5449 -106.102 106.104 -106.102zM1156.04 469.568c-62.2822 0 -112.85 50.5654 -112.851 112.848
c0 62.2832 50.5664 112.85 112.851 112.85c62.2812 0 112.847 -50.5674 112.847 -112.85c-0.00195312 -62.2822 -50.5654 -112.846 -112.847 -112.848zM1156.04 362.781c121.218 0 219.634 98.416 219.634 219.635c0 121.22 -98.415 219.638 -219.634 219.638
c-121.221 0 -219.638 -98.418 -219.638 -219.638c0.000976562 -121.22 98.417 -219.635 219.638 -219.635zM1156.04 356.035c-124.943 0 -226.384 101.438 -226.385 226.381c0 124.943 101.441 226.384 226.385 226.384s226.381 -101.44 226.381 -226.384
c0 -124.942 -101.439 -226.381 -226.381 -226.381zM1156.04 359.408c-123.082 0 -223.011 99.9258 -223.012 223.008c0 123.082 99.9297 223.011 223.012 223.011c123.081 0 223.008 -99.9287 223.008 -223.011c-0.000976562 -123.081 -99.9277 -223.007 -223.008 -223.008z
M1156.04 472.941c60.4199 0.000976562 109.473 49.0547 109.474 109.475c0 60.4209 -49.0537 109.477 -109.474 109.477c-60.4219 0 -109.478 -49.0547 -109.478 -109.477c0.000976562 -60.4209 49.0566 -109.475 109.478 -109.475zM1156.04 994.534
c58.5576 0 106.099 47.543 106.101 106.102c0 58.5596 -47.543 106.104 -106.101 106.105c-58.5596 0 -106.104 -47.5449 -106.104 -106.106c0.00195312 -58.5576 47.5449 -106.101 106.104 -106.101zM1156.04 987.788c-62.2822 0 -112.85 50.5654 -112.851 112.847
c0 62.2852 50.5664 112.853 112.851 112.853c62.2812 -0.00195312 112.847 -50.5684 112.847 -112.853c-0.00195312 -62.2812 -50.5654 -112.846 -112.847 -112.847zM1156.04 881.001c121.218 0 219.634 98.416 219.634 219.634c0 121.222 -98.415 219.638 -219.634 219.639
c-121.221 0 -219.638 -98.417 -219.638 -219.639c0.000976562 -121.218 98.417 -219.634 219.638 -219.634zM1382.42 1100.63c0 -124.941 -101.439 -226.379 -226.381 -226.381c-124.943 0 -226.384 101.439 -226.385 226.381c0 124.945 101.441 226.386 226.385 226.386
c124.943 -0.000976562 226.381 -101.44 226.381 -226.386zM1156.04 877.628c-123.082 0 -223.011 99.9268 -223.012 223.008c0 123.082 99.9297 223.011 223.012 223.011c123.081 -0.000976562 223.008 -99.9287 223.008 -223.011
c-0.000976562 -123.08 -99.9277 -223.007 -223.008 -223.008zM1156.04 991.162c60.4199 0.000976562 109.473 49.0537 109.474 109.474c0 60.4209 -49.0537 109.477 -109.474 109.478c-60.4219 0 -109.478 -49.0557 -109.478 -109.478
c0.000976562 -60.4199 49.0566 -109.474 109.478 -109.474zM701.152 1253.64c58.5586 0 106.101 47.543 106.101 106.101c0 58.5596 -47.541 106.103 -106.101 106.104c-58.5576 0 -106.104 -47.5449 -106.104 -106.104
c0.000976562 -58.5576 47.5459 -106.101 106.104 -106.101zM814 1359.75c0 -62.2812 -50.5654 -112.845 -112.848 -112.847c-62.2812 0 -112.849 50.5654 -112.851 112.847c0 62.2842 50.5693 112.851 112.851 112.851
c62.2842 -0.000976562 112.848 -50.5684 112.848 -112.851zM701.152 1140.11c121.22 0 219.635 98.416 219.635 219.634c0 121.221 -98.415 219.638 -219.635 219.638c-121.219 0 -219.636 -98.417 -219.636 -219.638c0 -121.219 98.417 -219.634 219.636 -219.634z
M701.152 1133.36c-124.941 0 -226.383 101.438 -226.383 226.381s101.439 226.385 226.383 226.385s226.382 -101.441 226.382 -226.385c0 -124.941 -101.438 -226.381 -226.382 -226.381zM701.153 1136.74c-123.081 0 -223.01 99.9268 -223.01 223.009
c0 123.081 99.9277 223.011 223.01 223.011c123.081 0 223.008 -99.9297 223.008 -223.011s-99.9268 -223.008 -223.008 -223.009zM701.153 1250.27c60.4199 0.000976562 109.473 49.0547 109.474 109.475c0 60.4199 -49.0527 109.476 -109.474 109.477
c-60.4209 0 -109.478 -49.0557 -109.478 -109.477c0.000976562 -60.4209 49.0566 -109.475 109.478 -109.475zM1156.04 1512.75c58.5576 0 106.099 47.543 106.101 106.101c0 58.5596 -47.543 106.103 -106.101 106.104c-58.5596 0 -106.104 -47.5449 -106.104 -106.104
c0.00195312 -58.5596 47.5449 -106.101 106.104 -106.101zM1156.04 1506.01c-62.2822 0 -112.85 50.5645 -112.851 112.847c0 62.2822 50.5664 112.851 112.851 112.851c62.2812 -0.000976562 112.847 -50.5684 112.847 -112.851
c-0.00195312 -62.2812 -50.5654 -112.846 -112.847 -112.847zM1156.04 1399.22c121.218 0 219.634 98.415 219.634 219.634c0 121.221 -98.415 219.639 -219.634 219.639c-121.221 0 -219.638 -98.418 -219.638 -219.639
c0.000976562 -121.219 98.417 -219.634 219.638 -219.634zM1156.04 1845.24c124.943 0 226.381 -101.44 226.381 -226.385c0 -124.943 -101.439 -226.379 -226.381 -226.381c-124.943 0 -226.384 101.438 -226.385 226.381c0 124.944 101.441 226.385 226.385 226.385z
M1156.04 1395.85c-123.082 0 -223.011 99.9258 -223.012 223.007c0 123.083 99.9297 223.012 223.012 223.012c123.081 -0.000976562 223.008 -99.9297 223.008 -223.012c-0.000976562 -123.081 -99.9277 -223.007 -223.008 -223.007zM1156.04 1509.38
c60.4199 0.000976562 109.473 49.0537 109.474 109.474c0 60.4209 -49.0537 109.477 -109.474 109.478c-60.4219 0 -109.478 -49.0566 -109.478 -109.478c0.000976562 -60.4209 49.0566 -109.474 109.478 -109.474zM323.367 124.92
c-42.374 0 -68.5605 48.1299 -46.8867 85.5742l117.755 203.436l-66.6279 270.63c-8.77441 35.6436 17.2803 70.5518 52.9346 70.5518c25.4844 0 46.9141 -18.1074 52.9346 -42.5635l56.4795 -229.4l235.706 64.7178c34.5342 9.48145 68.6416 -17.5283 68.6416 -54.6748
c0 -26.2002 -17.2383 -48.2607 -40.6025 -54.6758l-259.039 -71.124l-124.405 -214.926c-9.54883 -16.4932 -26.9834 -27.5449 -46.8896 -27.5449z" />
</svg>
